<svg height="64" viewBox="0 0 1024 1024" width="64" xmlns="http://www.w3.org/2000/svg"><path d="m832 96.00086h-640c-52.9288 0-96.00086 43.07206-96.00086 96.00086v640c0 52.92708 43.07206 95.99914 96.00086 95.99914h640c52.92708 0 95.99914-43.07206 95.99914-95.99914v-640c.00172-52.93052-43.07034-96.00086-95.99914-96.00086zm-104.768714 342.431394-256.223626 259.006907c-.063647.063647-.192662.096331-.25631.192662-.096331.063647-.096331.192662-.192662.25631-2.048757 1.983389-4.575729 3.19957-6.944443 4.544765-1.183497.672598-2.143368 1.696116-3.392232 2.176052-3.839484 1.536138-7.904314 2.33603-11.967424 2.33603-4.095794 0-8.224271-.799892-12.096439-2.399677-1.279828-.543583-2.303346-1.632469-3.519527-2.303346-2.368714-1.343475-4.832039-2.528692-6.880796-4.544765-.063647-.063647-.096331-.192662-.159978-.25631-.063647-.096331-.192662-.096331-.25631-.192662l-126.016611-129.503454c-12.320065-12.672705-12.032791-32.928047.639914-45.248112 12.672705-12.287381 32.895364-12.063755 45.248112.639914l103.26354 106.112189 233.279613-235.808305c12.416396-12.576374 32.704421-12.672705 45.248112-.25631 12.516168 12.447359 12.643463 32.704421.227067 45.248112z" fill="#55b8b4"/></svg>