<svg height="64" viewBox="0 0 1024 1024" width="64" xmlns="http://www.w3.org/2000/svg"><path d="m832 928.00086h-640c-52.9288 0-96.00086-43.07206-96.00086-95.99914v-640c0-52.9288 43.07206-96.00086 96.00086-96.00086h640c52.92708 0 95.99914 43.07206 95.99914 96.00086v640c.00172 52.92708-43.07034 95.99914-95.99914 95.99914zm-640-768c-17.632039 0-32.00086 14.368821-32.00086 32.00086v640c0 17.664722 14.368821 31.99914 32.00086 31.99914h640c17.664722 0 31.99914-14.336138 31.99914-31.99914v-640c0-17.632039-14.336138-32.00086-31.99914-32.00086z" fill="#bfbfbf"/></svg>